<?xml version="1.0" encoding="UTF-8"?>
<svg width="182px" height="50px" viewBox="0 0 182 50" version="1.1" xmlns="http://www.w3.org/2000/svg" xmlns:xlink="http://www.w3.org/1999/xlink">
    <title>Maiar</title>
    <defs>
        <linearGradient x1="25.0645079%" y1="50%" x2="50%" y2="62.4803998%" id="linearGradient-1">
            <stop stop-color="#1A45C2" offset="0%"></stop>
            <stop stop-color="#001F9C" offset="100%"></stop>
        </linearGradient>
        <linearGradient x1="50%" y1="62.4834284%" x2="74.9247439%" y2="50%" id="linearGradient-2">
            <stop stop-color="#001F9C" offset="0%"></stop>
            <stop stop-color="#1A45C2" offset="100%"></stop>
        </linearGradient>
    </defs>
    <g id="Page-1" stroke="none" stroke-width="1" fill="none" fill-rule="evenodd">
        <g id="Landing-3-Copy-4" transform="translate(-45.000000, -35.000000)">
            <g id="Maiar/logo/maiar-logo-Copy-2" transform="translate(45.000000, 35.000000)">
                <g id="icon-no-shape">
                    <polygon id="Rectangle-Copy-2" fill="url(#linearGradient-1)" transform="translate(12.490196, 25.000000) scale(1, -1) rotate(-90.000000) translate(-12.490196, -25.000000) " points="37.4901961 12.5098039 24.9484286 25.0798153 12.5228895 37.4901961 -12.5098039 12.5098039"></polygon>
                    <polygon id="Rectangle-Copy-3" fill="url(#linearGradient-2)" transform="translate(43.714929, 37.500000) scale(-1, -1) rotate(-90.000000) translate(-43.714929, -37.500000) " points="56.2149286 31.2541443 43.7149286 43.7458557 31.2149286 31.2541443"></polygon>
                    <polygon id="Rectangle-Copy-5" fill="#1A45C2" transform="translate(31.229002, 25.000000) scale(-1, -1) rotate(-90.000000) translate(-31.229002, -25.000000) " points="56.229002 31.2486099 43.729002 43.7317822 6.22900203 6.2682178 31.229002 6.2682178"></polygon>
                </g>
                <path d="M104.118707,39.8809524 L104.118707,27.0129933 C104.118707,21.6658347 100.382975,17.9706437 95.126888,17.9706437 C91.8255439,17.9706437 88.480761,19.7530299 87.1775989,23.2743295 C85.9178755,19.4487201 82.4862151,17.9706437 79.2283098,17.9706437 C76.4482305,17.9706437 73.71159,19.1444102 72.2346729,21.9701445 L72.1912341,18.405372 L70.1930522,18.405372 L70.1930522,39.8809524 L72.3215504,39.8809524 L72.3215504,27.1434118 C72.3215504,23.0134925 75.1016296,20.0138669 79.184871,20.0138669 C83.2681124,20.0138669 86.0916304,23.0134925 86.0916304,27.1434118 L86.0916304,39.8809524 L88.2201286,39.8809524 L88.2201286,27.1434118 C88.2201286,23.0134925 91.0436466,19.9703941 95.126888,19.9703941 C99.2101294,19.9703941 101.990209,22.883074 101.990209,27.0129933 L101.990209,39.8809524 L104.118707,39.8809524 Z M127.856072,18.405372 L127.856072,23.1004382 C126.075084,19.7530299 122.556546,18.144535 119.081447,18.144535 C113.086901,18.144535 108.178323,22.5787642 108.178323,29.1431622 C108.178323,35.7075603 113.086901,40.2287351 119.081447,40.2287351 C122.556546,40.2287351 125.771012,38.663713 127.856072,35.3163047 L127.856072,39.8809524 L129.98457,39.8809524 L129.98457,18.405372 L127.856072,18.405372 Z M119.081447,20.1877583 C131.0271,20.1877583 131.0271,38.142039 119.081447,38.142039 C114.216308,38.142039 110.306822,34.5337937 110.306822,29.1431622 C110.306822,23.7525307 114.216308,20.1877583 119.081447,20.1877583 Z M137.128337,18.3184264 L137.128337,39.8809524 L134.999839,39.8809524 L134.999839,18.3184264 L137.128337,18.3184264 Z M134.391697,11.4062457 C134.391697,9.14565826 137.823357,9.14565826 137.823357,11.4062457 C137.823357,13.6668331 134.391697,13.6668331 134.391697,11.4062457 Z M160.95258,18.405372 L160.95258,23.1004382 C159.171591,19.7530299 155.653054,18.144535 152.177954,18.144535 C146.183409,18.144535 141.274831,22.5787642 141.274831,29.1431622 C141.274831,35.7075603 146.183409,40.2287351 152.177954,40.2287351 C155.653054,40.2287351 158.86752,38.663713 160.95258,35.3163047 L160.95258,39.8809524 L163.081078,39.8809524 L163.081078,18.405372 L160.95258,18.405372 Z M152.177954,20.1877583 C164.123607,20.1877583 164.123607,38.142039 152.177954,38.142039 C147.312816,38.142039 143.403329,34.5337937 143.403329,29.1431622 C143.403329,23.7525307 147.312816,20.1877583 152.177954,20.1877583 Z M168.096347,18.405372 L170.094529,18.405372 L170.181406,22.2309815 C171.499356,19.3802735 174.440094,18.2369124 177.130286,18.1895492 L177.305359,18.1880079 C178.912592,18.144535 180.476387,18.5792634 181.909865,19.4487201 L180.954213,21.1876335 C179.824806,20.4920681 178.565083,20.1877583 177.305359,20.1877583 C173.308995,20.2312311 170.224845,23.4482209 170.224845,27.360776 L170.224845,39.8809524 L168.096347,39.8809524 L168.096347,18.405372 Z" id="maiar" fill="#000000" fill-rule="nonzero"></path>
            </g>
        </g>
    </g>
</svg>